<svg width="72" height="72" viewBox="0 0 72 72" fill="none" xmlns="http://www.w3.org/2000/svg">
<path d="M2.25 21.375H11.25C11.8721 21.375 12.375 20.8721 12.375 20.25V16.875H31.5C32.121 16.875 32.625 17.379 32.625 18V24.75C32.625 25.3721 33.1279 25.875 33.75 25.875H42.75C43.3721 25.875 43.875 25.3721 43.875 24.75V18C43.875 11.1769 38.3231 5.625 31.5 5.625H12.375V2.25C12.375 1.62788 11.8721 1.125 11.25 1.125H2.25C1.62788 1.125 1.125 1.62788 1.125 2.25V20.25C1.125 20.8721 1.62788 21.375 2.25 21.375ZM34.875 23.625V21.375H41.625V23.625H34.875ZM41.625 18V19.125H34.875V18C34.875 16.1392 33.3608 14.625 31.5 14.625H16.875V7.875H31.5C37.0834 7.875 41.625 12.4166 41.625 18ZM14.625 7.875V14.625H12.375V7.875H14.625ZM3.375 3.375H10.125V19.125H3.375V3.375Z" fill="#00B4FF"/>
<path d="M48.375 61.875H34.6894C34.7996 61.5139 34.875 61.1392 34.875 60.75C34.875 59.724 34.4756 58.7587 33.75 58.0342L21.0454 45.3296C20.835 45.1181 20.5493 45 20.25 45H12.375V43.875C12.375 43.2529 11.8721 42.75 11.25 42.75H2.25C1.62788 42.75 1.125 43.2529 1.125 43.875V61.875C1.125 62.4971 1.62788 63 2.25 63H11.25C11.8721 63 12.375 62.4971 12.375 61.875V60.75H13.0984L25.164 70.6207C25.3643 70.785 25.6162 70.875 25.875 70.875H48.375C50.8568 70.875 52.875 68.8568 52.875 66.375C52.875 63.8932 50.8568 61.875 48.375 61.875ZM10.125 60.75H3.375V45H10.125V60.75ZM48.375 68.625H26.2766L14.211 58.7543C14.0107 58.59 13.7588 58.5 13.5 58.5H12.375V47.25H19.7843L32.1593 59.625C32.4596 59.9265 32.625 60.3248 32.625 60.75C32.625 61.1752 32.4596 61.5735 32.1593 61.875L31.5 62.5342C30.8981 63.1339 29.8519 63.1339 29.25 62.5342L23.2954 56.5796L21.7046 58.1704L27.6593 64.125C28.3849 64.8506 29.349 65.25 30.375 65.25C31.401 65.25 32.3662 64.8506 33.0907 64.125H48.375C49.6159 64.125 50.625 65.1341 50.625 66.375C50.625 67.6159 49.6159 68.625 48.375 68.625Z" fill="#00B4FF"/>
<path d="M32.625 28.125H34.875V49.5H32.625V28.125Z" fill="#00B4FF"/>
<path d="M37.125 30.375H39.375V56.25H37.125V30.375Z" fill="#00B4FF"/>
<path d="M41.625 28.125H43.875V49.5H41.625V28.125Z" fill="#00B4FF"/>
<path d="M61.875 33.75C59.3932 33.75 57.375 35.7682 57.375 38.25C57.375 40.7318 59.3932 42.75 61.875 42.75C64.3568 42.75 66.375 40.7318 66.375 38.25C66.375 35.7682 64.3568 33.75 61.875 33.75ZM61.875 40.5C60.6341 40.5 59.625 39.4909 59.625 38.25C59.625 37.0091 60.6341 36 61.875 36C63.1159 36 64.125 37.0091 64.125 38.25C64.125 39.4909 63.1159 40.5 61.875 40.5Z" fill="#00B4FF"/>
<path d="M54 28.125C57.1016 28.125 59.625 25.6016 59.625 22.5C59.625 19.3984 57.1016 16.875 54 16.875C50.8984 16.875 48.375 19.3984 48.375 22.5C48.375 25.6016 50.8984 28.125 54 28.125ZM54 19.125C55.8608 19.125 57.375 20.6392 57.375 22.5C57.375 24.3608 55.8608 25.875 54 25.875C52.1392 25.875 50.625 24.3608 50.625 22.5C50.625 20.6392 52.1392 19.125 54 19.125Z" fill="#00B4FF"/>
<path d="M65.25 1.125C62.1484 1.125 59.625 3.64838 59.625 6.75C59.625 9.85162 62.1484 12.375 65.25 12.375C68.3516 12.375 70.875 9.85162 70.875 6.75C70.875 3.64838 68.3516 1.125 65.25 1.125ZM65.25 10.125C63.3892 10.125 61.875 8.61075 61.875 6.75C61.875 4.88925 63.3892 3.375 65.25 3.375C67.1108 3.375 68.625 4.88925 68.625 6.75C68.625 8.61075 67.1108 10.125 65.25 10.125Z" fill="#00B4FF"/>
<path d="M58.5 47.25C57.9802 47.25 57.4661 47.3119 56.961 47.4322C56.1296 45.3352 54.0776 43.875 51.75 43.875C48.6484 43.875 46.125 46.3984 46.125 49.5H48.375C48.375 47.6392 49.8892 46.125 51.75 46.125C53.415 46.125 54.8437 47.3771 55.0732 49.0376C55.1216 49.3886 55.332 49.698 55.6436 49.869C55.9552 50.0377 56.3265 50.0546 56.6516 49.9084C57.2501 49.6372 57.8711 49.5 58.5 49.5C60.9818 49.5 63 51.5182 63 54C63 55.1824 62.541 56.3006 61.7074 57.15C61.2776 57.5876 61.2776 58.2885 61.7074 58.725C62.541 59.5744 63 60.6926 63 61.875C63 64.3568 60.9818 66.375 58.5 66.375V68.625C62.2226 68.625 65.25 65.5976 65.25 61.875C65.25 60.4451 64.8045 59.0805 63.9787 57.9375C64.8045 56.7945 65.25 55.4299 65.25 54C65.25 50.2774 62.2226 47.25 58.5 47.25V47.25Z" fill="#00B4FF"/>
<path d="M50.7281 58.1487L52.9838 51.396L55.118 52.1089L52.8623 58.8616L50.7281 58.1487Z" fill="#00B4FF"/>
<path d="M52.875 59.625H59.625V61.875H52.875V59.625Z" fill="#00B4FF"/>
</svg>
