<svg width="72" height="72" viewBox="0 0 72 72" fill="none" xmlns="http://www.w3.org/2000/svg">
<path d="M39.5437 4.79993H32.3438C31.0183 4.79993 29.9438 5.87439 29.9438 7.19989V9.59985C29.9438 10.9254 31.0183 11.9998 32.3438 11.9998H39.5437C40.8692 11.9998 41.9436 10.9254 41.9436 9.59985V7.19989C41.9436 5.87439 40.8692 4.79993 39.5437 4.79993ZM32.3438 9.59985V7.19989H39.5437V9.59985H32.3438Z" fill="#00B4FF"/>
<path d="M43.1439 0H28.7435C26.7556 0 25.1439 1.61169 25.1439 3.60022V14.6294C18.8915 15.7912 14.3542 21.241 14.3438 27.5999V54C14.3487 58.4604 16.6053 62.6166 20.3439 65.0495V67.2001C20.3439 69.8511 22.4929 72 25.1439 72H46.7435C49.3945 72 51.544 69.8511 51.544 67.2001V65.0495C55.2821 62.6166 57.5392 58.4604 57.5436 54V27.5999C57.5338 21.241 52.9958 15.7912 46.7435 14.6294V3.60022C46.7435 1.61169 45.1318 0 43.1439 0V0ZM27.5438 3.60022C27.5438 2.93719 28.0811 2.39996 28.7435 2.39996H43.1439C43.8063 2.39996 44.3436 2.93719 44.3436 3.60022V14.3998H27.5438V3.60022ZM49.1435 66.2986V67.2001C49.1435 68.5256 48.069 69.6 46.7435 69.6H25.1439C23.8184 69.6 22.7439 68.5256 22.7439 67.2001V66.2986C22.9164 66.3662 23.0955 66.4189 23.2718 66.4766C23.4481 66.5338 23.5909 66.5903 23.7519 66.6398C23.9919 66.709 24.2232 66.7595 24.4611 66.8221C24.6385 66.865 24.8126 66.9122 24.9911 66.9419C25.2471 66.9924 25.5064 67.0248 25.764 67.0622C25.9272 67.0847 26.0881 67.1149 26.2535 67.1314C26.6808 67.1726 27.1104 67.1962 27.5411 67.1962H44.3436C44.7748 67.1962 45.2043 67.1726 45.6312 67.1314C45.7971 67.1149 45.958 67.0847 46.1212 67.0622C46.3788 67.027 46.6381 66.9946 46.8935 66.9419C47.0726 66.9062 47.2467 66.8589 47.4241 66.8221C47.6642 66.7656 47.9042 66.709 48.1333 66.6398C48.2964 66.5903 48.4563 66.5316 48.6134 66.4766C48.7705 66.4211 48.971 66.3662 49.1435 66.2986ZM55.1437 27.5999V54C55.1206 58.3412 52.5218 62.2546 48.5294 63.9602C48.4371 63.9987 48.3398 64.0272 48.2476 64.0629C47.9399 64.1832 47.6296 64.2898 47.3126 64.3799C47.1808 64.4172 47.0473 64.4496 46.9127 64.4832C46.6128 64.5562 46.3096 64.6166 46.002 64.6644C45.8822 64.6826 45.7619 64.7051 45.6339 64.721C45.2054 64.7726 44.7748 64.799 44.3436 64.8001H27.5438C27.1126 64.7974 26.6819 64.7693 26.2535 64.7161C26.1337 64.7001 26.0079 64.6776 25.8854 64.6595C25.5784 64.6117 25.2746 64.5513 24.9747 64.4782C24.8401 64.4447 24.7072 64.4123 24.5748 64.3749C24.2584 64.2854 23.9474 64.1772 23.6404 64.0585C23.5475 64.0223 23.4503 63.9937 23.358 63.9553C19.3672 62.2507 16.769 58.3396 16.7437 54V27.5999C16.7509 21.6381 21.5821 16.8074 27.5438 16.7997H44.3436C50.3053 16.8074 55.1365 21.6381 55.1437 27.5999V27.5999Z" fill="#00B4FF"/>
<path d="M39.7298 36.5746C37.5699 34.8399 35.7039 33.3347 35.7039 31.5346C35.7978 30.9024 36.1763 30.347 36.7311 30.029C37.2315 29.6818 37.4298 29.0374 37.2107 28.4689C36.9909 27.8932 36.4081 27.5411 35.7962 27.6142C31.4763 28.1305 29.4587 33.2474 29.4587 36.5422C29.5532 38.1374 30.0899 39.675 31.0083 40.9823C31.428 41.5558 31.718 42.2133 31.8587 42.9099C31.8587 43.9898 31.5099 43.9898 31.1391 43.9898C30.6035 43.9898 30.3338 43.8778 30.258 43.7723C30.1261 43.3449 30.1591 42.8835 30.3502 42.4787C30.5381 41.931 30.3294 41.3257 29.8443 41.0098C29.3532 40.7154 28.7292 40.7659 28.2925 41.1361C26.3875 42.8912 25.2553 45.3296 25.1438 47.9175C25.1438 53.2282 29.1808 56.4 35.9439 56.4C42.7071 56.4 46.7435 53.2282 46.7435 47.9175C46.7435 42.2122 42.8543 39.0866 39.7298 36.5746V36.5746ZM35.9439 54C32.8068 54 27.5438 53.209 27.5438 47.9175C27.5564 46.9347 27.8031 45.9696 28.2639 45.1022C28.2782 45.1236 28.2914 45.144 28.3068 45.1632C28.9846 46.0245 30.052 46.4843 31.1435 46.386C32.6519 46.386 34.2636 45.4741 34.2636 42.906C34.1581 41.7684 33.7483 40.6802 33.0771 39.7563C32.3915 38.8114 31.9729 37.6996 31.8636 36.5378C31.8977 34.8794 32.4008 33.2644 33.3144 31.8802C33.4945 34.6405 35.7951 36.4933 38.2263 38.4456C41.2333 40.8637 44.3463 43.3658 44.3463 47.9175C44.3435 53.209 39.0805 54 35.9439 54Z" fill="#00B4FF"/>
</svg>
