<svg width="72" height="72" viewBox="0 0 72 72" fill="none" xmlns="http://www.w3.org/2000/svg">
<g clip-path="url(#clip0)">
<path d="M37.7682 40.9235V10.4793C37.7682 4.70105 33.0672 0 27.2889 0C21.5107 0 16.8102 4.70105 16.8102 10.4793V40.9235C12.5261 44.1892 9.98438 49.2962 9.98438 54.6954C9.98438 57.3492 10.5694 59.8958 11.7241 62.265C11.9828 62.7962 12.6227 63.017 13.1534 62.7583C13.6846 62.4996 13.9054 61.8596 13.6467 61.3284C12.6359 59.2537 12.1229 57.0218 12.1229 54.6954C12.1229 49.7999 14.5069 45.1791 18.4999 42.3347C18.7817 42.1342 18.9487 41.8096 18.9487 41.4635V10.4793C18.9487 5.88043 22.6901 2.13849 27.2895 2.13849C31.8884 2.13849 35.6298 5.88043 35.6298 10.4793V41.4635C35.6298 41.8096 35.7973 42.1337 36.0786 42.3342C40.0715 45.1791 42.4556 49.7999 42.4556 54.6954C42.4556 63.0577 35.6517 69.8615 27.2895 69.8615C22.6533 69.8615 18.3323 67.7812 15.4341 64.1552C15.0656 63.6938 14.3926 63.6185 13.9312 63.9871C13.4698 64.3557 13.3951 65.0286 13.7637 65.4901C17.0695 69.6275 21.999 72 27.2889 72C36.8311 72 44.5941 64.2371 44.5941 54.6954C44.5941 49.2957 42.0524 44.1892 37.7682 40.9235V40.9235Z" fill="#00B4FF"/>
<path d="M30.9963 17.8599C31.5868 17.8599 32.0652 17.3815 32.0652 16.791V10.4793C32.0652 7.84534 29.9229 5.703 27.2889 5.703C24.6555 5.703 22.5132 7.84534 22.5132 10.4793V43.8519L20.5681 45.2373C17.5117 47.4148 15.6874 50.9502 15.6874 54.6954C15.6874 61.0928 20.8922 66.297 27.2889 66.297C33.6863 66.297 38.8911 61.0928 38.8911 54.6954C38.8911 50.9502 37.0662 47.4148 34.0104 45.2373L32.0652 43.8519V21.0679C32.0652 20.4774 31.5868 19.999 30.9963 19.999C30.4058 19.999 29.9268 20.4774 29.9268 21.0679V21.7952H24.6517V15.7637H29.9268V16.791C29.9268 17.3815 30.4058 17.8599 30.9963 17.8599ZM29.9268 38.1357H24.6517V32.1042H29.9268V38.1357ZM32.7695 46.9792C35.2634 48.7562 36.7526 51.6401 36.7526 54.6954C36.7526 59.9134 32.5074 64.1585 27.2895 64.1585C22.0715 64.1585 17.8264 59.9134 17.8264 54.6954C17.8264 51.6407 19.3151 48.7562 21.809 46.9792L24.2029 45.2736C24.4847 45.0731 24.6517 44.7484 24.6517 44.4029V40.2742H29.9268V44.4029C29.9268 44.7484 30.0943 45.0731 30.3755 45.2736L32.7695 46.9792ZM29.9268 23.9337V29.9652H24.6517V23.9337H29.9268ZM24.6517 13.6252V10.4793C24.6517 9.02472 25.8349 7.84149 27.2889 7.84149C28.7435 7.84149 29.9268 9.02472 29.9268 10.4793V13.6252H24.6517Z" fill="#00B4FF"/>
<path d="M51.1271 10.0498C48.0613 10.0498 45.5669 12.5437 45.5669 15.6094C45.5669 18.6757 48.0613 21.1701 51.1271 21.1701C54.1934 21.1701 56.6873 18.6757 56.6873 15.6094C56.6873 12.5437 54.1928 10.0498 51.1271 10.0498ZM51.1271 19.0311C49.2407 19.0311 47.7059 17.4963 47.7059 15.6094C47.7059 13.7231 49.2407 12.1883 51.1271 12.1883C53.014 12.1883 54.5488 13.7231 54.5488 15.6094C54.5488 17.4963 53.014 19.0311 51.1271 19.0311Z" fill="#00B4FF"/>
<path d="M60.5858 15.6094L61.9662 11.9081C62.1623 11.3824 61.919 10.7946 61.4086 10.5617L57.8156 8.92146L56.1748 5.32838C55.9424 4.81807 55.3552 4.57417 54.8289 4.77083L51.1271 6.15126L47.4258 4.77083C46.9001 4.57472 46.3123 4.81807 46.0794 5.32838L44.4392 8.92146L40.8461 10.5617C40.3358 10.7946 40.0919 11.3824 40.288 11.9081L41.6684 15.6094L40.288 19.3112C40.0919 19.8369 40.3358 20.4247 40.8461 20.6576L44.4386 22.2979L46.0794 25.8909C46.258 26.2821 46.6447 26.5161 47.0523 26.5161C47.1764 26.5161 47.3028 26.4946 47.4258 26.4485L51.1271 25.0681L54.8284 26.4485C55.3546 26.6446 55.9419 26.4013 56.1748 25.8909L57.8156 22.2979L61.4081 20.6576C61.9184 20.4247 62.1623 19.8369 61.9662 19.3112L60.5858 15.6094ZM56.5642 20.5181C56.3302 20.6252 56.1424 20.8125 56.0358 21.0471L54.6433 24.0969L51.5006 22.9252C51.3803 22.8801 51.2534 22.8576 51.1271 22.8576C51.0002 22.8576 50.8739 22.8801 50.7536 22.9252L47.6109 24.0969L46.2184 21.0471C46.1118 20.8125 45.924 20.6252 45.69 20.5181L42.6396 19.1256L43.8113 15.9829C43.9014 15.7423 43.9014 15.477 43.8113 15.2359L42.6396 12.0938L45.69 10.7007C45.924 10.5941 46.1118 10.4063 46.2184 10.1723L47.6109 7.1219L50.7536 8.29414C50.9947 8.38368 51.2595 8.38368 51.5006 8.29414L54.6433 7.1219L56.0358 10.1723C56.1424 10.4063 56.3302 10.5941 56.5642 10.7007L59.6146 12.0938L58.4429 15.2359C58.3528 15.477 58.3528 15.7423 58.4429 15.9829L59.6146 19.1256L56.5642 20.5181Z" fill="#00B4FF"/>
</g>
<defs>
<clipPath id="clip0">
<rect width="72" height="72" fill="white"/>
</clipPath>
</defs>
</svg>
